<svg width="3508" height="4588" viewBox="0 0 3508 4588" fill="none" xmlns="http://www.w3.org/2000/svg">
<path d="M1325.77 2987.89C1312.9 2962.15 1280.72 2962.15 1251.76 2968.58C1139.13 2994.33 1045.81 3016.85 939.622 3065.12C640.359 3209.92 427.979 3441.61 267.084 3724.78C241.341 3773.05 215.598 3818.1 196.291 3866.37C151.241 3962.91 115.844 4065.88 80.4472 4165.64C61.1399 4226.78 54.7041 4249.3 41.8325 4307.22C28.961 4371.58 12.8716 4435.94 6.10352e-05 4506.73C96.5366 4468.12 183.419 4429.5 279.956 4403.76C318.571 4390.89 318.571 4390.89 344.314 4384.45C350.749 4381.23 360.403 4378.02 366.839 4374.8C444.068 4352.27 518.079 4336.18 595.309 4320.09C759.421 4287.91 923.533 4271.83 1090.86 4262.17C1142.35 4258.95 1200.27 4281.48 1242.1 4249.3C1280.72 4217.12 1296.81 4159.2 1319.33 4110.93C1383.69 3975.78 1422.3 3830.98 1454.48 3682.95L1457.7 3367.6C1428.74 3242.1 1386.91 3110.17 1325.77 2987.89Z" fill="url(#paint0_linear)"/>
<path d="M2456.25 4587.05C2539.92 4587.05 2623.58 4583.83 2707.25 4567.74C2961.46 4519.47 3180.28 4403.63 3334.74 4188.03C3518.15 3933.82 3540.68 3647.43 3469.89 3348.16C3415.18 3126.13 3286.47 2949.15 3122.35 2794.69C2967.9 2649.88 2797.35 2530.82 2630.02 2402.11C2446.6 2257.3 2266.4 2106.06 2153.77 1900.12C2150.55 1893.68 2140.9 1884.03 2118.38 1896.9C1841.64 2131.8 1831.98 2521.17 1980.01 2765.73C2066.89 2907.31 2182.73 3019.94 2305.01 3126.13C2462.69 3264.5 2607.49 3412.52 2745.86 3570.2C2807 3637.77 2803.78 3718.22 2742.64 3772.92C2684.72 3824.41 2604.28 3814.76 2546.35 3750.4C2430.51 3621.68 2308.23 3492.97 2179.51 3377.12C1983.22 3200.14 1770.84 3052.12 1510.2 2984.54C1420.09 2962.02 1375.04 2958.8 1291.38 2955.58C1265.64 2955.58 1239.89 2955.58 1214.15 2962.02C992.116 3007.07 850.529 3171.18 750.774 3315.99C728.249 3348.16 760.428 3386.78 795.825 3373.91C876.272 3344.95 982.462 3319.2 1082.22 3309.55C1207.71 3299.9 1278.51 3447.92 1191.62 3538.02C1162.66 3566.98 1127.27 3605.59 1085.43 3657.08C1040.38 3711.78 995.334 3769.71 959.937 3830.85C856.965 3998.18 757.21 4142.98 731.467 4297.44C834.439 4284.57 976.026 4274.91 1146.57 4287.79C1188.41 4291 1349.3 4303.88 1561.68 4358.58C1928.52 4451.9 1963.92 4500.17 2121.59 4538.78C2221.35 4564.52 2324.32 4574.18 2427.29 4587.05C2430.51 4587.05 2430.51 4587.05 2433.73 4587.05H2456.25Z" fill="url(#paint1_linear)"/>
<path d="M1908.23 678.541C1927.54 681.759 1946.85 668.888 1946.85 649.581C1946.85 633.491 1946.85 620.62 1946.85 604.53C1950.06 437.2 1933.98 282.742 1908.23 137.937C1901.8 102.54 1853.53 89.6686 1831 121.847C1747.34 237.691 1673.33 376.06 1618.62 536.955C1615.4 546.608 1612.19 559.48 1608.97 569.133C1602.53 588.441 1615.4 607.748 1634.71 610.966C1673.33 620.62 1718.38 633.491 1763.43 639.927C1831 652.798 1856.75 665.67 1908.23 678.541Z" fill="url(#paint2_linear)"/>
<path d="M1718.32 28.5347C1715.11 -0.426266 1679.71 -10.0799 1663.62 12.4453C1386.88 334.234 1229.21 623.843 1139.11 816.916C1061.88 987.464 1016.83 1122.62 994.301 1267.42C968.558 1421.88 939.597 1624.61 1029.7 1846.64C1094.06 2010.75 1197.03 2120.16 1264.6 2178.08C1248.51 2139.47 1232.42 2081.54 1216.34 2010.75C1200.25 1933.52 1187.37 1875.6 1200.25 1798.37C1206.68 1759.76 1219.55 1695.4 1258.17 1624.61C1235.64 1782.28 1264.6 1901.34 1283.91 1965.7C1335.4 2123.38 1435.15 2226.35 1551 2345.41C1631.44 2429.08 1705.45 2490.22 1756.94 2528.83C1702.24 2464.47 1676.49 2406.55 1663.62 2367.94C1589.61 2155.56 1670.06 1911 1818.08 1775.85C1837.39 1756.54 1859.91 1743.67 1904.96 1711.49C2091.6 1589.21 2271.8 1531.29 2403.73 1492.67C2452 1476.58 2442.35 1483.02 2484.18 1470.15C2628.99 1425.1 2815.62 1367.17 2986.17 1228.81C2995.82 1222.37 3111.67 1122.62 3163.16 993.9C3172.81 968.157 3198.55 907.017 3172.81 878.056C3163.16 865.185 3147.07 861.967 3137.41 861.967C3034.44 845.877 2760.92 923.106 2551.76 903.799C2480.96 897.363 2416.61 881.274 2355.47 849.095C2307.2 823.352 2294.33 807.263 2255.71 775.084C2152.74 684.983 1953.23 649.586 1737.63 610.972C1727.98 610.972 1708.67 604.536 1695.8 588.447C1679.71 565.921 1689.36 536.96 1692.58 527.307C1708.67 459.731 1715.11 363.195 1724.76 166.904C1724.76 137.943 1724.76 89.6745 1718.32 28.5347Z" fill="url(#paint3_linear)"/>
<path d="M2255.73 1232.01C2255.73 1232.01 2918.61 1083.99 3102.03 929.528C3114.9 919.875 3121.34 916.657 3137.43 907.003C3137.43 907.003 3150.3 900.567 3166.39 897.35C3169.61 897.35 3172.83 897.35 3176.04 897.35C3185.7 900.567 3188.92 923.093 3185.7 939.182C3185.7 945.618 3182.48 948.836 3182.48 952.054C3172.83 974.579 3166.39 993.886 3163.17 1000.32C3111.69 1129.04 2995.84 1228.79 2986.19 1235.23C2815.64 1373.6 2632.22 1431.52 2484.2 1476.57C2442.37 1489.44 2452.02 1486.22 2403.75 1499.09C2271.82 1537.71 2091.62 1595.63 1904.98 1717.91C1859.93 1746.87 1837.4 1762.96 1818.1 1782.27C1666.86 1917.42 1589.63 2165.2 1663.64 2374.36C1676.51 2412.97 1702.25 2470.89 1756.96 2535.25C1705.47 2496.64 1631.46 2435.5 1551.01 2351.83C1402.99 2197.37 1296.8 2081.53 1283.93 1972.12C1258.19 1701.82 1779.48 1341.42 2255.73 1232.01Z" fill="url(#paint4_linear)"/>
<defs>
<linearGradient id="paint0_linear" x1="-17.3868" y1="3746.04" x2="1457.44" y2="3725.69" gradientUnits="userSpaceOnUse">
<stop stop-color="#F5AF19"/>
<stop offset="0.0421912" stop-color="#F5A618"/>
<stop offset="0.2636" stop-color="#F37916"/>
<stop offset="0.4763" stop-color="#F25514"/>
<stop offset="0.6754" stop-color="#F23C12"/>
<stop offset="0.8555" stop-color="#F12C11"/>
<stop offset="1" stop-color="#F12711"/>
</linearGradient>
<linearGradient id="paint1_linear" x1="710.221" y1="3259.15" x2="3503.17" y2="3220.61" gradientUnits="userSpaceOnUse">
<stop stop-color="#F5AF19"/>
<stop offset="1" stop-color="#F12711"/>
</linearGradient>
<linearGradient id="paint2_linear" x1="1588.09" y1="443.372" x2="1953.83" y2="380.357" gradientUnits="userSpaceOnUse">
<stop stop-color="#F5AF19"/>
<stop offset="0.6047" stop-color="#F35A14"/>
<stop offset="1" stop-color="#F12711"/>
</linearGradient>
<linearGradient id="paint3_linear" x1="930.478" y1="1418.82" x2="3194.66" y2="983.739" gradientUnits="userSpaceOnUse">
<stop stop-color="#F12711"/>
<stop offset="0.6047" stop-color="#F37C16"/>
<stop offset="1" stop-color="#F5AF19"/>
</linearGradient>
<linearGradient id="paint4_linear" x1="1276.5" y1="1944.18" x2="3306.93" y2="1554.01" gradientUnits="userSpaceOnUse">
<stop stop-color="#F5AF19"/>
<stop offset="1" stop-color="#F12711"/>
</linearGradient>
</defs>
</svg>
